<svg xmlns="http://www.w3.org/2000/svg" fill="url(#LinearGradient)">
    <defs>
        <linearGradient id="LinearGradient">
            <stop stop-color="#fbb040" offset="0"></stop>
            <stop stop-color="#f9ed32" offset="1"></stop>
        </linearGradient>
    </defs>
    <path d="M66.45,17.22,72.94,13a1.16,1.16,0,0,1,1.27,0A44.24,44.24,0,0,1,51.1,94.24v3.18A1.34,1.34,0,0,1,49,98.54L37.55,91.06a1.34,1.34,0,0,1,0-2.24L49,81.34a1.34,1.34,0,0,1,2.07,1.12v3.13A35.6,35.6,0,0,0,66.52,18.48.73.73,0,0,1,66.45,17.22ZM25.79,87a1.16,1.16,0,0,0,1.27,0l6.49-4.23a.73.73,0,0,0-.07-1.26A35.6,35.6,0,0,1,48.9,14.41v3.13A1.34,1.34,0,0,0,51,18.66l11.49-7.48a1.34,1.34,0,0,0,0-2.24L51,1.46A1.34,1.34,0,0,0,48.9,2.58V5.76A44.24,44.24,0,0,0,25.79,87Zm35.9-51a28.85,28.85,0,0,1-10.14,0l-4.29-.77-.3-.05-.24,0h-.18l-.43,0a5.4,5.4,0,0,0-3.45,1.24,5.57,5.57,0,0,0-1,7.33l6.49,9.8a.39.39,0,0,1-.18.58l-4.86,2a4.85,4.85,0,0,0-2.67,2.77l-3.9,10.42a2.63,2.63,0,0,0,.21,2.45,2.6,2.6,0,0,0,2.09,1.05,3.25,3.25,0,0,0,4.05-1.95l3.38-9,8.87-3.68a1.68,1.68,0,0,1,.65-.13,1.7,1.7,0,0,1,1.35.68l2.43,3.22a4.83,4.83,0,0,0,4.5,1.88l8.6-1.08a3.25,3.25,0,0,0-.42-6.47l-.44,0-7.64,1-4.07-5.4-6.62-10A30.46,30.46,0,0,0,57,42a30.23,30.23,0,0,0,5.23-.46l1.42-.25a2.77,2.77,0,0,0-.94-5.46ZM42.2,32.14a5.08,5.08,0,1,0-5.08,5.08A5.08,5.08,0,0,0,42.2,32.14Z"></path>
</svg>